<?xml version="1.0" encoding="utf-8"?>
<!-- Generator: Adobe Illustrator 16.0.3, SVG Export Plug-In . SVG Version: 6.00 Build 0)  -->
<!DOCTYPE svg PUBLIC "-//W3C//DTD SVG 1.1//EN" "http://www.w3.org/Graphics/SVG/1.1/DTD/svg11.dtd">
<svg version="1.1" id="Layer_1" xmlns="http://www.w3.org/2000/svg" xmlns:xlink="http://www.w3.org/1999/xlink" x="0px" y="0px"
	 width="595.275px" height="61.333px" viewBox="0 0 595.275 61.333" enable-background="new 0 0 595.275 61.333"
	 xml:space="preserve">
<line fill="none" stroke="#000000" x1="40.592" y1="33.718" x2="578" y2="33.718"/>
<rect x="58.04" y="27.167" fill="#A4CE39" stroke="#000000" stroke-width="0.75" width="57.616" height="15"/>
<rect x="122.342" y="26.915" fill="#EFCEE2" stroke="#000000" stroke-width="0.75" width="63.217" height="15"/>
<rect x="192.314" y="26.919" fill="#997157" stroke="#000000" stroke-width="0.75" width="42.682" height="15"/>
<rect x="240.505" y="26.919" fill="#FBF49C" stroke="#000000" stroke-width="0.75" width="50.442" height="15"/>
<rect x="319.227" y="26.919" fill="#CB9865" stroke="#000000" stroke-width="0.75" width="15.388" height="15"/>
<rect x="293.361" y="26.919" fill="#B78572" stroke="#000000" stroke-width="0.75" width="22.411" height="15"/>
<rect x="337.173" y="26.919" fill="#73C280" stroke="#010101" stroke-width="0.75" width="27.108" height="15"/>
<rect x="368.085" y="26.67" fill="#989898" stroke="#000000" stroke-width="0.75" width="192.978" height="15"/>
<g>
	<path d="M83.812,38.189v-8.083h1.151l2.579,4.09c0.587,0.947,1.067,1.787,1.439,2.626l0.036-0.012
		c-0.096-1.079-0.12-2.063-0.12-3.31v-3.394h0.983v8.083h-1.055l-2.567-4.102c-0.563-0.9-1.103-1.823-1.499-2.699l-0.036,0.012
		c0.06,1.019,0.072,1.991,0.072,3.334v3.454H83.812z"/>
</g>
<g>
	<path d="M152.337,29.961c0.503-0.096,1.163-0.168,2.003-0.168c1.031,0,1.787,0.24,2.267,0.672c0.444,0.384,0.72,0.971,0.72,1.691
		c0,0.731-0.216,1.307-0.636,1.727c-0.552,0.587-1.451,0.887-2.471,0.887c-0.312,0-0.6-0.012-0.839-0.072v3.238h-1.043V29.961z
		 M153.38,33.847c0.228,0.06,0.527,0.084,0.863,0.084c1.271,0,2.027-0.624,2.027-1.715c0-1.08-0.755-1.595-1.907-1.595
		c-0.456,0-0.804,0.048-0.983,0.084V33.847z"/>
</g>
<g>
	<path d="M216.555,34.392c-0.06-1.127-0.132-2.495-0.132-3.49h-0.024c-0.288,0.936-0.612,1.955-1.02,3.07l-1.427,3.922h-0.792
		l-1.319-3.85c-0.384-1.151-0.695-2.183-0.923-3.142h-0.024c-0.024,1.007-0.084,2.351-0.156,3.574l-0.216,3.466h-0.995l0.563-8.083
		h1.332l1.379,3.91c0.336,0.996,0.6,1.883,0.815,2.723h0.024c0.216-0.815,0.503-1.703,0.863-2.723l1.439-3.91h1.331l0.504,8.083
		h-1.032L216.555,34.392z"/>
</g>
<g>
	<path d="M267.083,29.857h4.354v0.875h-3.298v2.687h3.046v0.863h-3.046v3.658h-1.056V29.857z"/>
</g>
<g>
	<path d="M304.221,34.757c-0.059-1.127-0.131-2.494-0.131-3.49h-0.025c-0.287,0.936-0.611,1.955-1.018,3.07l-1.428,3.922h-0.791
		l-1.32-3.85c-0.383-1.151-0.696-2.183-0.923-3.142h-0.024c-0.023,1.007-0.084,2.351-0.155,3.574l-0.216,3.466h-0.996l0.564-8.083
		h1.331l1.379,3.91c0.336,0.996,0.6,1.883,0.816,2.723h0.023c0.217-0.815,0.504-1.703,0.863-2.723l1.439-3.91h1.332l0.504,8.083
		h-1.031L304.221,34.757z"/>
	<path d="M306.686,38.308V37.66l0.826-0.804c1.992-1.895,2.902-2.902,2.902-4.078c0-0.792-0.371-1.523-1.535-1.523
		c-0.707,0-1.295,0.36-1.654,0.66l-0.336-0.744c0.527-0.443,1.307-0.792,2.207-0.792c1.666,0,2.375,1.151,2.375,2.267
		c0,1.439-1.045,2.603-2.688,4.186l-0.611,0.576v0.024h3.49v0.875H306.686z"/>
</g>
<g>
	<path d="M320.996,36.975c0.469,0.3,1.141,0.528,1.859,0.528c1.068,0,1.691-0.552,1.691-1.379c0-0.743-0.432-1.187-1.523-1.595
		c-1.318-0.48-2.135-1.175-2.135-2.303c0-1.259,1.043-2.195,2.615-2.195c0.814,0,1.428,0.192,1.775,0.396l-0.289,0.852
		c-0.252-0.156-0.791-0.384-1.523-0.384c-1.104,0-1.521,0.66-1.521,1.211c0,0.755,0.49,1.127,1.605,1.559
		c1.367,0.54,2.051,1.188,2.051,2.375c0,1.247-0.91,2.338-2.818,2.338c-0.779,0-1.631-0.24-2.063-0.528L320.996,36.975z"/>
	<path d="M328.088,30.163v3.382h3.91v-3.382h1.055v8.083h-1.055v-3.79h-3.91v3.79h-1.055v-8.083H328.088z"/>
</g>
<g>
	<path d="M352.594,37.581c-0.469,0.18-1.404,0.444-2.496,0.444c-1.223,0-2.23-0.312-3.021-1.067
		c-0.695-0.672-1.127-1.751-1.127-3.01c0-2.411,1.666-4.174,4.377-4.174c0.936,0,1.68,0.204,2.027,0.372l-0.264,0.852
		c-0.432-0.204-0.973-0.348-1.787-0.348c-1.967,0-3.25,1.223-3.25,3.25c0,2.051,1.223,3.262,3.117,3.262
		c0.684,0,1.152-0.096,1.393-0.216v-2.411h-1.633v-0.839h2.664V37.581z"/>
</g>
<g>
	<path d="M465.974,29.607h1.056v7.208h3.454v0.875h-4.51V29.607z"/>
</g>
<g>
	<path d="M31.458,36.132c0.3,0.18,0.983,0.479,1.727,0.479c1.343,0,1.775-0.852,1.763-1.511c-0.012-1.091-0.996-1.559-2.015-1.559
		h-0.587V32.75h0.587c0.768,0,1.739-0.396,1.739-1.319c0-0.624-0.396-1.175-1.367-1.175c-0.624,0-1.224,0.276-1.559,0.516
		l-0.288-0.768c0.42-0.3,1.211-0.6,2.051-0.6c1.535,0,2.231,0.912,2.231,1.859c0,0.816-0.492,1.5-1.439,1.847v0.024
		c0.959,0.18,1.739,0.899,1.739,1.991c0,1.247-0.983,2.338-2.842,2.338c-0.875,0-1.643-0.276-2.027-0.528L31.458,36.132z"/>
	<path d="M39.017,29.032c-0.276,1.007-0.792,2.303-1.115,2.854l-0.672,0.072c0.252-0.708,0.576-1.943,0.708-2.807L39.017,29.032z"/>
</g>
<g>
	<path d="M585.525,29.089h-2.975l-0.3,1.979c0.18-0.024,0.348-0.048,0.636-0.048c0.611,0,1.199,0.132,1.68,0.419
		c0.611,0.336,1.115,1.02,1.115,2.027c0,1.523-1.212,2.663-2.902,2.663c-0.852,0-1.56-0.24-1.943-0.479l0.264-0.804
		c0.324,0.192,0.959,0.432,1.68,0.432c0.982,0,1.846-0.647,1.834-1.703c0-1.031-0.684-1.739-2.23-1.739
		c-0.455,0-0.804,0.036-1.092,0.084l0.504-3.718h3.73V29.089z"/>
	<path d="M588.683,27.698c-0.276,1.007-0.792,2.303-1.115,2.854l-0.672,0.072c0.252-0.708,0.575-1.943,0.708-2.807L588.683,27.698z"
		/>
</g>
<g>
	<path d="M208.82,3.674c-0.875,1.187-1.499,2.734-1.499,4.917c0,2.135,0.66,3.658,1.499,4.857h-0.815
		c-0.756-0.996-1.571-2.531-1.571-4.869c0.012-2.351,0.815-3.898,1.571-4.905H208.82z"/>
	<path d="M212.396,8.375v0.768h-2.962V8.375H212.396z"/>
	<path d="M212.998,13.448c0.84-1.188,1.5-2.734,1.5-4.893c0-2.159-0.648-3.682-1.5-4.881h0.816c0.755,0.983,1.571,2.53,1.571,4.881
		c-0.012,2.351-0.815,3.874-1.571,4.893H212.998z"/>
	<path d="M219.441,10.93c0.324,0.192,0.875,0.408,1.403,0.408c0.756,0,1.115-0.372,1.115-0.863c0-0.504-0.3-0.78-1.067-1.067
		c-1.055-0.384-1.547-0.948-1.547-1.644c0-0.935,0.768-1.703,2.003-1.703c0.587,0,1.104,0.156,1.415,0.359l-0.252,0.756
		c-0.228-0.132-0.647-0.336-1.187-0.336c-0.624,0-0.959,0.36-0.959,0.792c0,0.492,0.335,0.708,1.091,0.996
		c0.996,0.372,1.523,0.875,1.523,1.751c0,1.031-0.803,1.751-2.159,1.751c-0.636,0-1.223-0.168-1.631-0.408L219.441,10.93z"/>
	<path d="M225.609,4.801v1.391h1.511v0.803h-1.511v3.13c0,0.72,0.204,1.127,0.792,1.127c0.288,0,0.456-0.024,0.611-0.072
		l0.048,0.803c-0.204,0.072-0.528,0.144-0.936,0.144c-0.492,0-0.888-0.168-1.14-0.444c-0.288-0.324-0.408-0.839-0.408-1.523V6.996
		h-0.899V6.192h0.899V5.125L225.609,4.801z"/>
	<path d="M228.321,8.003c0-0.684-0.012-1.271-0.048-1.811h0.924l0.048,1.139h0.036c0.264-0.779,0.911-1.271,1.619-1.271
		c0.108,0,0.192,0.012,0.288,0.036V7.08c-0.12-0.012-0.228-0.024-0.372-0.024c-0.744,0-1.271,0.564-1.416,1.343
		c-0.024,0.156-0.036,0.324-0.036,0.504v3.094h-1.056L228.321,8.003z"/>
	<path d="M236.251,10.606c0,0.503,0.024,0.995,0.084,1.391h-0.948l-0.096-0.731h-0.036c-0.312,0.456-0.947,0.863-1.775,0.863
		c-1.175,0-1.775-0.828-1.775-1.667c0-1.403,1.247-2.171,3.49-2.159v-0.12c0-0.479-0.132-1.355-1.319-1.343
		c-0.551,0-1.115,0.156-1.523,0.432l-0.24-0.708c0.479-0.3,1.188-0.503,1.919-0.503c1.787,0,2.219,1.211,2.219,2.375V10.606z
		 M235.22,9.035c-1.151-0.024-2.459,0.18-2.459,1.307c0,0.696,0.456,1.008,0.983,1.008c0.768,0,1.259-0.48,1.427-0.972
		c0.036-0.108,0.048-0.228,0.048-0.336V9.035z"/>
	<path d="M237.945,7.763c0-0.611-0.012-1.091-0.048-1.571h0.936l0.06,0.947h0.024c0.288-0.54,0.959-1.079,1.919-1.079
		c0.803,0,2.051,0.479,2.051,2.47v3.466h-1.056V8.651c0-0.936-0.348-1.727-1.343-1.727c-0.684,0-1.223,0.492-1.415,1.08
		C239.024,8.135,239,8.327,239,8.495v3.502h-1.056V7.763z"/>
	<path d="M249.618,3.482v7.016c0,0.516,0.012,1.103,0.048,1.499h-0.947l-0.048-1.007h-0.024c-0.324,0.647-1.02,1.139-1.967,1.139
		c-1.403,0-2.495-1.187-2.495-2.95c-0.012-1.943,1.2-3.118,2.603-3.118c0.9,0,1.5,0.419,1.751,0.875h0.024V3.482H249.618z
		 M248.563,8.555c0-0.144-0.012-0.312-0.048-0.456c-0.156-0.66-0.731-1.211-1.523-1.211c-1.091,0-1.739,0.959-1.739,2.231
		c0,1.188,0.588,2.159,1.715,2.159c0.708,0,1.355-0.479,1.547-1.259c0.036-0.144,0.048-0.288,0.048-0.456V8.555z"/>
	<path d="M253.953,4.034c0.528-0.108,1.295-0.18,2.003-0.18c1.115,0,1.847,0.216,2.351,0.672c0.396,0.348,0.636,0.899,0.636,1.535
		c0,1.055-0.684,1.763-1.523,2.051v0.036c0.612,0.216,0.983,0.792,1.188,1.631c0.264,1.127,0.456,1.907,0.612,2.219h-1.08
		c-0.132-0.228-0.312-0.923-0.528-1.931c-0.24-1.115-0.684-1.535-1.631-1.571h-0.983v3.502h-1.043V4.034z M254.996,7.704h1.067
		c1.115,0,1.823-0.612,1.823-1.535c0-1.043-0.755-1.5-1.859-1.5c-0.504,0-0.852,0.048-1.031,0.096V7.704z"/>
	<path d="M260.409,11.997V3.914h1.151l2.579,4.09c0.587,0.947,1.067,1.787,1.439,2.626l0.036-0.012
		c-0.096-1.079-0.12-2.063-0.12-3.31V3.914h0.983v8.083h-1.055l-2.566-4.102c-0.564-0.9-1.104-1.823-1.5-2.699l-0.036,0.012
		c0.06,1.019,0.072,1.991,0.072,3.334v3.454H260.409z"/>
	<path d="M269.612,9.455l-0.839,2.542h-1.08l2.747-8.083h1.259l2.758,8.083h-1.115l-0.863-2.542H269.612z M272.262,8.639
		l-0.803-2.327c-0.168-0.527-0.288-1.007-0.408-1.475h-0.036c-0.108,0.468-0.24,0.972-0.396,1.463l-0.792,2.339H272.262z"/>
	<path d="M283.122,11.146c0,1.343-0.276,2.147-0.828,2.663c-0.576,0.516-1.391,0.696-2.123,0.696c-0.696,0-1.463-0.168-1.931-0.48
		l0.264-0.815c0.384,0.252,0.983,0.468,1.703,0.468c1.08,0,1.871-0.564,1.871-2.039v-0.636h-0.024
		c-0.312,0.54-0.948,0.972-1.847,0.972c-1.439,0-2.471-1.224-2.471-2.842c0-1.967,1.284-3.07,2.627-3.07
		c1.007,0,1.547,0.516,1.811,0.995h0.024l0.036-0.863h0.936c-0.036,0.408-0.048,0.875-0.048,1.583V11.146z M282.066,8.471
		c0-0.168-0.012-0.324-0.06-0.468c-0.192-0.624-0.696-1.127-1.476-1.127c-1.007,0-1.727,0.852-1.727,2.207
		c0,1.127,0.588,2.087,1.715,2.087c0.66,0,1.247-0.408,1.463-1.091c0.06-0.168,0.083-0.372,0.083-0.563V8.471z"/>
	<path d="M285.464,9.274c0.024,1.427,0.924,2.015,1.979,2.015c0.755,0,1.223-0.132,1.607-0.288l0.192,0.744
		c-0.372,0.168-1.019,0.372-1.943,0.372c-1.775,0-2.854-1.188-2.854-2.927c0-1.763,1.043-3.142,2.735-3.142
		c1.895,0,2.387,1.667,2.387,2.734c0,0.216-0.012,0.384-0.036,0.504L285.464,9.274z M288.546,8.519
		c0.012-0.66-0.276-1.715-1.451-1.715c-1.08,0-1.535,0.984-1.619,1.715H288.546z"/>
	<path d="M290.876,7.763c0-0.611-0.012-1.091-0.048-1.571h0.936l0.06,0.947h0.024c0.288-0.54,0.959-1.079,1.919-1.079
		c0.803,0,2.051,0.479,2.051,2.47v3.466h-1.056V8.651c0-0.936-0.348-1.727-1.343-1.727c-0.684,0-1.223,0.492-1.415,1.08
		c-0.048,0.132-0.072,0.324-0.072,0.492v3.502h-1.056V7.763z"/>
	<path d="M299.898,12.129c-1.559,0-2.782-1.151-2.782-2.986c0-1.943,1.284-3.082,2.878-3.082c1.668,0,2.795,1.211,2.795,2.974
		c0,2.159-1.499,3.094-2.879,3.094H299.898z M299.936,11.337c1.007,0,1.762-0.947,1.762-2.267c0-0.983-0.491-2.219-1.738-2.219
		c-1.235,0-1.775,1.151-1.775,2.254c0,1.271,0.72,2.231,1.739,2.231H299.936z"/>
	<path d="M304.124,7.763c0-0.611-0.024-1.091-0.048-1.571H305l0.047,0.936h0.037c0.323-0.552,0.863-1.067,1.834-1.067
		c0.78,0,1.38,0.479,1.632,1.163h0.024c0.18-0.336,0.419-0.576,0.659-0.755c0.348-0.264,0.72-0.408,1.271-0.408
		c0.78,0,1.92,0.503,1.92,2.519v3.418h-1.031V8.711c0-1.127-0.42-1.787-1.26-1.787c-0.611,0-1.067,0.444-1.26,0.948
		c-0.047,0.156-0.084,0.348-0.084,0.527v3.598h-1.031V8.519c0-0.936-0.408-1.595-1.211-1.595c-0.648,0-1.14,0.528-1.308,1.056
		c-0.06,0.156-0.084,0.335-0.084,0.516v3.502h-1.031V7.763z"/>
	<path d="M314.732,9.274c0.023,1.427,0.923,2.015,1.979,2.015c0.756,0,1.223-0.132,1.607-0.288l0.191,0.744
		c-0.371,0.168-1.02,0.372-1.943,0.372c-1.774,0-2.854-1.188-2.854-2.927c0-1.763,1.043-3.142,2.734-3.142
		c1.895,0,2.387,1.667,2.387,2.734c0,0.216-0.012,0.384-0.036,0.504L314.732,9.274z M317.814,8.519
		c0.012-0.66-0.275-1.715-1.451-1.715c-1.08,0-1.535,0.984-1.619,1.715H317.814z"/>
</g>
<g>
	<path d="M32.541,44.15h1.056v8.515h-1.056V44.15z"/>
	<path d="M35.949,49.942c0.024,1.427,0.924,2.015,1.979,2.015c0.755,0,1.223-0.132,1.607-0.288l0.192,0.744
		c-0.372,0.168-1.019,0.372-1.943,0.372c-1.775,0-2.854-1.188-2.854-2.927c0-1.763,1.043-3.142,2.735-3.142
		c1.895,0,2.387,1.667,2.387,2.734c0,0.216-0.012,0.384-0.036,0.504L35.949,49.942z M39.031,49.187
		c0.012-0.66-0.276-1.715-1.451-1.715c-1.08,0-1.535,0.984-1.619,1.715H39.031z"/>
	<path d="M45.451,51.274c0,0.503,0.024,0.995,0.084,1.391h-0.948l-0.096-0.731h-0.036c-0.312,0.456-0.947,0.863-1.775,0.863
		c-1.175,0-1.775-0.828-1.775-1.667c0-1.403,1.247-2.171,3.49-2.159v-0.12c0-0.479-0.132-1.355-1.319-1.343
		c-0.551,0-1.115,0.156-1.523,0.432l-0.24-0.708c0.479-0.3,1.188-0.503,1.919-0.503c1.787,0,2.219,1.211,2.219,2.375V51.274z
		 M44.419,49.703c-1.151-0.024-2.459,0.18-2.459,1.307c0,0.696,0.456,1.008,0.983,1.008c0.768,0,1.259-0.48,1.427-0.972
		c0.036-0.108,0.048-0.228,0.048-0.336V49.703z"/>
	<path d="M52.158,44.15v7.016c0,0.516,0.012,1.103,0.048,1.499h-0.947l-0.048-1.007h-0.024c-0.324,0.647-1.02,1.139-1.967,1.139
		c-1.403,0-2.495-1.187-2.495-2.95c-0.012-1.943,1.2-3.118,2.603-3.118c0.9,0,1.5,0.419,1.751,0.875h0.024V44.15H52.158z
		 M51.103,49.223c0-0.144-0.012-0.312-0.048-0.456c-0.156-0.66-0.731-1.211-1.523-1.211c-1.091,0-1.739,0.959-1.739,2.231
		c0,1.188,0.588,2.159,1.715,2.159c0.708,0,1.355-0.479,1.547-1.259c0.036-0.144,0.048-0.288,0.048-0.456V49.223z"/>
	<path d="M54.512,49.942c0.024,1.427,0.924,2.015,1.979,2.015c0.755,0,1.223-0.132,1.607-0.288l0.192,0.744
		c-0.372,0.168-1.019,0.372-1.943,0.372c-1.775,0-2.854-1.188-2.854-2.927c0-1.763,1.043-3.142,2.735-3.142
		c1.895,0,2.387,1.667,2.387,2.734c0,0.216-0.012,0.384-0.036,0.504L54.512,49.942z M57.595,49.187
		c0.012-0.66-0.276-1.715-1.451-1.715c-1.08,0-1.535,0.984-1.619,1.715H57.595z"/>
	<path d="M59.937,48.671c0-0.684-0.012-1.271-0.048-1.811h0.924L60.86,48h0.036c0.264-0.779,0.911-1.271,1.619-1.271
		c0.108,0,0.192,0.012,0.288,0.036v0.983c-0.12-0.012-0.228-0.024-0.372-0.024c-0.744,0-1.271,0.564-1.416,1.343
		c-0.024,0.156-0.036,0.324-0.036,0.504v3.094h-1.056L59.937,48.671z"/>
</g>
<g>
	<path d="M558.779,46.136h-2.459v-0.888h5.984v0.888h-2.471v7.196h-1.055V46.136z"/>
	<path d="M562.645,49.338c0-0.684-0.013-1.271-0.049-1.811h0.924l0.048,1.139h0.036c0.264-0.779,0.911-1.271,1.619-1.271
		c0.107,0,0.191,0.012,0.287,0.036v0.983c-0.119-0.012-0.228-0.024-0.371-0.024c-0.744,0-1.271,0.564-1.416,1.343
		c-0.023,0.156-0.035,0.324-0.035,0.504v3.094h-1.056L562.645,49.338z"/>
	<path d="M570.574,51.941c0,0.503,0.023,0.995,0.084,1.391h-0.948l-0.096-0.731h-0.036c-0.312,0.456-0.947,0.863-1.775,0.863
		c-1.175,0-1.774-0.828-1.774-1.667c0-1.403,1.247-2.171,3.489-2.159v-0.12c0-0.479-0.131-1.355-1.318-1.343
		c-0.552,0-1.115,0.156-1.523,0.432l-0.24-0.708c0.48-0.3,1.188-0.503,1.92-0.503c1.787,0,2.219,1.211,2.219,2.375V51.941z
		 M569.543,50.37c-1.152-0.024-2.459,0.18-2.459,1.307c0,0.696,0.455,1.008,0.982,1.008c0.768,0,1.26-0.48,1.428-0.972
		c0.036-0.108,0.049-0.228,0.049-0.336V50.37z"/>
	<path d="M572.771,46.46c-0.396,0-0.659-0.312-0.659-0.684c0-0.372,0.276-0.672,0.684-0.672s0.671,0.3,0.671,0.672
		c0,0.372-0.264,0.684-0.684,0.684H572.771z M572.268,53.332v-5.805h1.057v5.805H572.268z"/>
	<path d="M575.076,44.817h1.055v8.515h-1.055V44.817z"/>
	<path d="M578.483,50.609c0.024,1.427,0.923,2.015,1.979,2.015c0.755,0,1.223-0.132,1.606-0.288l0.192,0.744
		c-0.372,0.168-1.02,0.372-1.943,0.372c-1.775,0-2.854-1.188-2.854-2.927c0-1.763,1.044-3.142,2.735-3.142
		c1.895,0,2.387,1.667,2.387,2.734c0,0.216-0.013,0.384-0.037,0.504L578.483,50.609z M581.566,49.854
		c0.012-0.66-0.276-1.715-1.451-1.715c-1.08,0-1.535,0.984-1.619,1.715H581.566z"/>
	<path d="M583.908,49.338c0-0.684-0.013-1.271-0.049-1.811h0.924l0.048,1.139h0.036c0.264-0.779,0.911-1.271,1.619-1.271
		c0.107,0,0.191,0.012,0.287,0.036v0.983c-0.119-0.012-0.228-0.024-0.371-0.024c-0.744,0-1.271,0.564-1.416,1.343
		c-0.023,0.156-0.035,0.324-0.035,0.504v3.094h-1.056L583.908,49.338z"/>
</g>
<g>
</g>
<g>
</g>
</svg>
